<?xml version="1.0" standalone="no"?>
<!DOCTYPE svg PUBLIC "-//W3C//DTD SVG 20010904//EN"
 "http://www.w3.org/TR/2001/REC-SVG-20010904/DTD/svg10.dtd">
<svg version="1.0" xmlns="http://www.w3.org/2000/svg"
 width="650.000000pt" height="120.000000pt" viewBox="0 0 650.000000 120.000000"
 preserveAspectRatio="xMidYMid meet">
<metadata>
Created by potrace 1.15, written by Peter Selinger 2001-2017
</metadata>
<g transform="translate(0.000000,120.000000) scale(0.100000,-0.100000)"
fill="#000000" stroke="none">
<path d="M950 1176 c0 -13 9 -35 20 -49 l20 -25 213 -4 c237 -4 275 -13 329
-77 71 -83 31 -256 -68 -297 -21 -9 -70 -14 -129 -14 l-95 0 0 -59 0 -58 108
-6 c125 -6 170 -21 224 -74 72 -70 88 -200 36 -301 -33 -66 -113 -106 -207
-106 -102 1 -173 46 -219 139 -35 72 -42 137 -42 418 0 254 -1 274 -20 305
-23 38 -54 52 -116 52 l-44 0 0 -312 c0 -384 10 -459 71 -552 68 -101 194
-156 363 -156 200 0 342 73 403 207 20 42 25 70 25 133 0 134 -62 236 -177
292 -41 20 -58 38 -36 38 23 0 100 84 121 132 32 75 25 178 -16 245 -38 61
-97 105 -175 132 -58 19 -84 21 -326 21 l-263 0 0 -24z"/>
<path d="M2800 657 c0 -439 3 -462 65 -534 58 -69 158 -94 284 -73 39 6 71 15
71 18 0 4 -5 24 -11 46 l-11 38 -54 -7 c-66 -8 -116 7 -144 42 -19 24 -20 40
-20 274 l0 249 115 0 115 0 0 50 0 50 -114 0 -114 0 -4 88 c-6 124 -29 152
-128 152 l-50 0 0 -393z"/>
<path d="M4654 1015 c-55 -72 -213 -170 -331 -205 l-43 -13 0 -54 c0 -29 4
-53 8 -53 5 0 31 7 58 15 27 9 85 18 129 21 71 5 85 3 124 -18 60 -31 83 -66
89 -130 l4 -53 -113 -1 c-233 0 -358 -81 -367 -236 -7 -110 24 -170 109 -213
99 -50 219 -43 323 20 52 31 56 32 61 14 9 -28 57 -49 110 -49 l46 0 -3 293
c-3 278 -4 294 -25 333 -40 75 -105 116 -221 139 l-33 7 61 36 c60 35 180 150
180 171 0 7 -26 11 -69 11 -68 0 -71 -1 -97 -35z m35 -668 c-4 -74 -7 -88 -33
-121 -36 -47 -78 -74 -132 -82 -53 -8 -109 17 -129 57 -20 38 -19 114 2 149
28 48 112 77 227 79 l68 1 -3 -83z"/>
<path d="M280 816 c-114 -31 -193 -95 -242 -194 -32 -64 -33 -71 -33 -187 0
-116 1 -123 33 -187 40 -81 110 -148 190 -179 78 -31 232 -32 309 -2 168 67
250 202 241 397 -4 97 -23 154 -75 229 -76 109 -269 166 -423 123z m162 -96
c51 -15 94 -53 126 -114 25 -48 27 -59 27 -176 0 -121 -1 -127 -31 -180 -25
-44 -42 -61 -85 -83 -45 -24 -62 -28 -103 -23 -130 15 -214 150 -204 325 12
187 124 291 270 251z"/>
<path d="M2190 816 c-74 -20 -122 -48 -173 -98 -192 -192 -124 -556 121 -648
169 -64 375 -14 474 115 126 165 92 466 -67 575 -93 64 -242 87 -355 56z m165
-97 c94 -26 159 -143 159 -289 0 -143 -51 -238 -148 -275 -99 -38 -196 10
-249 123 -29 61 -32 75 -32 167 0 83 4 109 23 151 49 108 139 153 247 123z"/>
<path d="M3837 809 c-146 -50 -233 -153 -257 -304 -21 -135 26 -306 103 -371
102 -86 281 -114 444 -68 l52 14 -14 46 c-7 25 -15 48 -18 50 -2 2 -24 -3 -48
-12 -119 -42 -245 -5 -299 89 -79 139 -55 350 49 425 74 54 196 66 271 27 37
-19 43 -10 38 56 -3 41 -5 44 -43 55 -66 20 -211 16 -278 -7z"/>
<path d="M6007 820 c-110 -28 -201 -103 -250 -208 -30 -63 -32 -74 -32 -177 0
-102 2 -115 31 -175 41 -86 80 -130 151 -167 114 -60 236 -68 356 -23 164 62
243 192 235 390 -3 88 -7 104 -41 173 -65 132 -158 188 -322 193 -49 2 -107
-1 -128 -6z m178 -109 c57 -26 91 -64 115 -130 44 -115 33 -265 -25 -352 -58
-88 -168 -111 -261 -54 -40 25 -55 43 -84 100 -31 64 -34 78 -35 160 0 113 22
182 76 236 59 59 140 74 214 40z"/>
<path d="M5150 811 c-76 -24 -117 -61 -152 -136 -22 -48 -23 -59 -23 -330 l0
-280 88 -3 87 -3 0 286 c0 316 2 330 62 361 24 13 47 15 95 11 l64 -6 -3 52
-3 52 -95 2 c-52 1 -106 -2 -120 -6z"/>
<path d="M3300 435 l0 -375 85 0 85 0 0 375 0 375 -85 0 -85 0 0 -375z"/>
<path d="M5440 435 l0 -375 85 0 85 0 0 375 0 375 -85 0 -85 0 0 -375z"/>
</g>
</svg>
